<svg width="111" height="111" viewBox="0 0 111 111" fill="none" xmlns="http://www.w3.org/2000/svg">
<rect width="111" height="110" rx="40" fill="#4285F4"/>
<g clip-path="url(#clip0_242_10803)">
<path d="M60.5464 22.9739H35.4304C33.0696 22.9739 31 25.0409 31 27.4069V83.5435C31 85.9069 33.067 87.9765 35.433 87.9765H73.8428C76.2062 87.9765 78.2758 85.9095 78.2758 83.5435V40.7007L67.9356 33.3141L60.5464 22.9739Z" fill="white"/>
<path d="M42.8169 70.2471H66.4535V67.2935H42.8195L42.8169 70.2471ZM42.8169 76.1569H60.5437V73.2033H42.8169V76.1569ZM42.8169 55.4739V58.4275H66.4535V55.4739H42.8169ZM42.8169 64.3373H66.4535V61.3837H42.8195L42.8169 64.3373Z" fill="#4B8FFF"/>
<path d="M60.5464 22.9739V36.2703C60.5464 38.6337 62.6134 40.7007 64.9768 40.7007H78.2732L60.5464 22.9739Z" fill="#D6D6D6"/>
</g>
<defs>
<clipPath id="clip0_242_10803">
<rect width="47.2732" height="65" fill="white" transform="translate(31 22.9739)"/>
</clipPath>
</defs>
</svg>
