<svg width="111" height="111" viewBox="0 0 111 111" fill="none" xmlns="http://www.w3.org/2000/svg">
<rect width="111" height="110" rx="40" fill="#F8761F"/>
<path d="M82.8572 54.1429C81.3797 51.6699 79.3013 49.6872 76.7029 48.1947C74.7612 47.095 72.7477 46.397 70.4787 46.0973V38.2392C72.7477 37.302 74.1558 35.2275 74.1558 32.8074C74.1558 29.5088 71.4367 26.8357 68.0487 26.8357C64.658 26.8357 61.8912 29.5088 61.8912 32.8074C61.8912 35.2275 63.2181 37.302 65.4871 38.2392V46.1008C63.6719 46.356 61.7896 46.9065 60.0706 47.7523C56.5597 45.1583 45.047 36.6481 38.3124 31.6777C38.4721 31.1175 38.5951 30.54 38.5951 29.9308C38.5951 26.2773 35.5538 23.3159 31.7969 23.3159C28.0399 23.3159 25 26.2773 25 29.9308C25 33.5839 28.0431 36.5462 31.8 36.5462C33.0815 36.5462 34.2668 36.1815 35.2897 35.582L36.7109 36.6309L56.2402 50.3199C55.2078 51.2421 54.2463 52.291 53.4771 53.4679C51.9183 55.8673 50.9658 58.5073 50.9658 61.3869V61.9878C50.9658 64.0092 51.3606 65.9177 52.0331 67.7105C52.6253 69.2759 53.4912 70.6992 54.5635 71.9861L48.082 78.3069C47.1427 77.9668 46.1225 77.897 45.1435 78.1059C44.1645 78.3148 43.268 78.7935 42.5612 79.4848C42.0718 79.9585 41.6839 80.522 41.42 81.1427C41.1561 81.7633 41.0214 82.4287 41.0237 83.1004C41.0242 84.4658 41.571 85.7492 42.5639 86.7146C43.0506 87.1911 43.6296 87.5689 44.2674 87.826C44.9052 88.0832 45.5891 88.2148 46.2795 88.213C46.9702 88.2147 47.6543 88.0831 48.2923 87.826C48.9303 87.5688 49.5096 87.191 49.9965 86.7146C50.4856 86.2409 50.8734 85.6776 51.1374 85.0572C51.4014 84.4369 51.5365 83.7718 51.5349 83.1004C51.5349 82.5719 51.4509 82.0563 51.293 81.5663L57.9923 75.0481C58.9108 75.6652 59.9027 76.1848 60.9691 76.6329C63.0725 77.5176 65.394 78.0566 67.9348 78.0566H68.4004C71.2094 78.0566 73.859 77.4147 76.3499 76.1018C78.9746 74.7143 81.0289 72.8169 82.5809 70.3946C84.141 67.9656 85 65.282 85 62.3295V62.182C85 59.2776 84.3089 56.5979 82.8572 54.1429ZM74.6718 67.8164C72.8534 69.7823 70.7633 70.9932 68.4004 70.9932H68.011C66.6615 70.9932 65.3414 70.6303 64.049 69.9703C62.5923 69.2437 61.4851 68.2071 60.5789 66.8947C59.6423 65.6065 59.134 64.2 59.134 62.7087V62.2557C59.134 60.7896 59.4231 59.3995 60.1519 58.0865C60.931 56.6513 61.9834 55.5353 63.3828 54.648C64.7569 53.7668 66.2245 53.3346 67.859 53.3346H68.011C69.4931 53.3346 70.8962 53.6189 72.2204 54.278C73.5695 54.9808 74.6718 55.941 75.5262 57.2041C76.3562 58.4675 76.85 59.8303 77.0088 61.315C77.0337 61.6236 77.0464 61.9397 77.0464 62.2416C77.0464 64.2565 76.255 66.1225 74.6718 67.8164Z" fill="white"/>
</svg>
