<svg width="111" height="111" viewBox="0 0 111 111" fill="none" xmlns="http://www.w3.org/2000/svg">
<rect width="111" height="110" rx="40" fill="#0A1551"/>
<path d="M41.4403 83.1583C42.6863 84.3533 41.8059 86.4005 40.0359 86.4005H28.9625C26.7778 86.4005 25 84.696 25 82.6008V71.9817C25 70.2848 27.1349 69.441 28.381 70.6352L41.4403 83.1583Z" fill="white"/>
<path d="M58.7494 84.0813C55.4722 80.8597 55.4722 75.6373 58.7494 72.4157L70.5795 60.7905C73.8567 57.5689 79.1712 57.5689 82.4492 60.7905C85.7272 64.0113 85.7272 69.2345 82.4492 72.4553L70.6199 84.0813C67.3419 87.3021 62.0274 87.3021 58.7494 84.0813Z" fill="white"/>
<path d="M27.4965 54.8691C24.2186 51.6482 24.2186 46.4251 27.4965 43.2042L45.2752 25.7321C48.5531 22.5105 53.8677 22.5105 57.1456 25.7321C60.4229 28.953 60.4229 34.1761 57.1456 37.397L39.3666 54.8691C36.0886 58.0907 30.7743 58.0907 27.4965 54.8691Z" fill="white"/>
<path d="M43.7724 68.8232C40.4945 65.6016 40.4945 60.3792 43.7724 57.1576L70.6718 30.7228C73.9497 27.5012 79.2643 27.5012 82.5422 30.7228C85.8194 33.9437 85.8194 39.1668 82.5422 42.3877L55.6429 68.8232C52.3649 72.0448 47.0504 72.0448 43.7724 68.8232Z" fill="white"/>
</svg>
