<svg width="111" height="111" viewBox="0 0 111 111" fill="none" xmlns="http://www.w3.org/2000/svg">
<rect width="111" height="110" rx="40" fill="#F0C95C"/>
<path d="M63.2847 63.0758C65.2714 66.0991 67.8561 68.3213 72.4275 68.3213C76.2678 68.3213 78.721 66.5324 78.721 64.0607C78.721 61.0986 76.2005 60.0495 71.9735 58.3263L69.6565 57.3997C62.9684 54.7441 58.5254 51.4173 58.5254 44.3843C58.5254 37.9057 63.8217 32.9739 72.0987 32.9739C77.9914 32.9739 82.2278 34.8853 85.2806 39.8902L78.0635 44.2092C76.4744 41.5536 74.7602 40.5074 72.0987 40.5074C69.3841 40.5074 67.6635 42.1124 67.6635 44.2092C67.6635 46.8006 69.3856 47.8497 73.3621 49.4548L75.6791 50.3799C83.5538 53.5272 88 56.7358 88 63.9498C88 71.727 81.445 75.9876 72.642 75.9876C64.0346 75.9876 58.4738 72.1647 55.7528 67.154L63.2847 63.0758ZM30.5444 63.8243C32.0003 66.2319 33.3248 68.2674 36.5091 68.2674C39.5541 68.2674 41.475 67.157 41.475 62.8394V33.4671H50.7431V62.9561C50.7431 71.9006 45.1165 75.9716 36.9036 75.9716C29.4829 75.9716 25.1855 72.3923 23 68.0813L30.5444 63.8243Z" fill="white"/>
</svg>
