<svg width="111" height="111" viewBox="0 0 111 111" fill="none" xmlns="http://www.w3.org/2000/svg">
<rect width="111" height="110" rx="40" fill="#007392"/>
<path d="M80.2662 69.8676C77.0017 69.7903 74.4716 70.1002 72.3496 70.9522C71.7374 71.1844 70.7579 71.1846 70.6763 71.9206C71.0028 72.2305 71.0436 72.7341 71.3293 73.1599C71.8195 73.9344 72.6759 74.9803 73.4513 75.5228C74.3081 76.1424 75.1654 76.762 76.0628 77.3043C77.6545 78.2339 79.4502 78.776 81.0009 79.7057C81.899 80.2475 82.7961 80.9452 83.694 81.5261C84.1429 81.8355 84.4284 82.3395 85 82.533V82.417C84.7141 82.0681 84.6325 81.5648 84.347 81.1774C83.9394 80.7901 83.5308 80.4414 83.1226 80.0541C81.9393 78.5438 80.4703 77.2268 78.8789 76.1424C77.5731 75.2902 74.7163 74.1283 74.1859 72.6951C74.1859 72.6951 74.1449 72.6566 74.1043 72.6179C75.0019 72.5404 76.0628 72.2305 76.9201 71.9981C78.3075 71.6492 79.5724 71.7269 81.0009 71.3783C81.6536 71.2234 82.3066 71.0297 82.9594 70.836V70.4876C82.2252 69.7903 81.6947 68.8609 80.9192 68.2024C78.8381 66.4978 76.5526 64.8326 74.1859 63.4383C72.9208 62.6636 71.2883 62.16 69.9417 61.5017C69.4524 61.2691 68.6359 61.1531 68.3505 60.7657C67.6156 59.9137 67.2075 58.7906 66.6772 57.7835C65.4941 55.653 64.3511 53.2905 63.3308 51.0443C62.5967 49.5336 62.1477 48.0229 61.2499 46.6288C57.0467 40.0443 52.4762 36.0549 45.4574 32.1428C43.9473 31.3296 42.1518 30.981 40.2339 30.5551C39.2141 30.5161 38.1935 30.4389 37.1735 30.3999C36.5205 30.1288 35.8675 29.393 35.2961 29.0444C32.9705 27.6499 26.9713 24.6291 25.2575 28.6185C24.1555 31.1359 26.8899 33.6146 27.8282 34.8931C28.5224 35.7838 29.4198 36.7907 29.9096 37.7978C30.1953 38.4559 30.2767 39.1536 30.5623 39.8506C31.2156 41.5544 31.8273 43.4527 32.6846 45.0408C33.1335 45.8541 33.623 46.706 34.1944 47.442C34.5209 47.8679 35.092 48.0618 35.2147 48.7588C34.6436 49.5336 34.6025 50.6956 34.2758 51.6638C32.8068 56.0406 33.3784 61.463 35.4593 64.6776C36.1121 65.6456 37.663 67.7765 39.7442 66.9628C41.5807 66.2658 41.1726 64.0581 41.7027 62.1215C41.8256 61.6562 41.744 61.3467 41.9886 61.0369V61.1146C42.56 62.1987 43.1311 63.2448 43.6617 64.3292C44.9268 66.2268 47.1302 68.2024 48.9665 69.5194C49.9463 70.2162 50.7215 71.417 51.9458 71.8431V71.7267H51.864C51.6191 71.3781 51.2518 71.2234 50.9255 70.952C50.1911 70.2552 49.3747 69.403 48.8035 68.6283C47.0899 66.459 45.5796 64.0578 44.233 61.5789C43.5803 60.3786 43.0087 59.0615 42.4783 57.8609C42.2332 57.3957 42.2332 56.6989 41.8253 56.4667C41.2132 57.3186 40.3155 58.0546 39.8666 59.1003C39.0916 60.7657 39.0098 62.8185 38.7241 64.9485C38.5608 64.9877 38.6422 64.9485 38.5606 65.0265C37.2551 64.7161 36.8061 63.4383 36.3162 62.3537C35.0918 59.6038 34.8877 55.1884 35.9491 52.0125C36.2348 51.199 37.4591 48.6429 36.9694 47.8681C36.7245 47.1321 35.908 46.706 35.4593 46.1252C34.929 45.3892 34.3574 44.46 33.9903 43.6463C33.0108 41.4773 32.5211 39.0759 31.4602 36.9069C30.9705 35.8998 30.1139 34.8543 29.4198 33.9247C28.6446 32.879 27.7876 32.1428 27.1754 30.9035C26.9716 30.4776 26.6856 29.7804 27.0121 29.3155C27.0938 29.0056 27.2568 28.8896 27.5835 28.8122C28.1141 28.3859 29.6241 28.9282 30.1542 29.1606C31.6643 29.7412 32.9292 30.2839 34.1944 31.0972C34.7655 31.4845 35.3777 32.2205 36.1121 32.4142H36.9692C38.2752 32.6851 39.7439 32.4917 40.9683 32.8401C43.1313 33.4984 45.0899 34.4668 46.8448 35.5126C52.1907 38.7273 56.5975 43.2977 59.5768 48.7588C60.0665 49.6493 60.2704 50.4632 60.7193 51.3925C61.5766 53.2905 62.6375 55.2271 63.4941 57.0862C64.3511 58.9064 65.1671 60.7657 66.3915 62.2764C67.0037 63.0894 69.4519 63.5158 70.5539 63.9418C71.3701 64.2903 72.6353 64.6004 73.3697 65.0262C74.7571 65.8393 76.1444 66.7694 77.4504 67.6599C78.1034 68.1247 80.1436 69.0931 80.2662 69.8676Z" fill="white"/>
<path d="M39.5629 35.5747C38.7178 35.5747 38.1214 35.6696 37.5247 35.811V35.9054H37.6241C38.0222 36.6605 38.7178 37.1797 39.2148 37.8402C39.6129 38.5951 39.9608 39.3506 40.3589 40.1057C40.4083 40.0583 40.458 40.0113 40.458 40.0113C41.1545 39.5391 41.5023 38.7842 41.5023 37.6514C41.204 37.3213 41.1542 36.9909 40.9056 36.6605C40.6075 36.1883 39.9608 35.9526 39.5629 35.5747Z" fill="white"/>
</svg>
