<svg width="111" height="111" viewBox="0 0 111 111" fill="none" xmlns="http://www.w3.org/2000/svg">
<rect y="0.342041" width="111" height="110" rx="40" fill="#20B276"/>
<path d="M28.6935 83.8053L27.6281 69.4827C27.6019 69.1307 28.0001 68.9097 28.285 69.1181L43.3231 80.1187C43.608 80.3271 43.5179 80.7736 43.1745 80.8552L29.2018 84.1772C28.954 84.2361 28.7124 84.0593 28.6935 83.8053Z" fill="white" stroke="white" stroke-width="0.827566"/>
<path d="M81.3065 83.8053L82.3719 69.4827C82.3981 69.1307 81.9999 68.9097 81.715 69.1181L66.6769 80.1187C66.392 80.3271 66.4821 80.7736 66.8255 80.8552L80.7982 84.1772C81.046 84.2361 81.2876 84.0593 81.3065 83.8053Z" fill="white" stroke="white" stroke-width="0.827566"/>
<path d="M54.7598 27C54.7596 39.4135 52.2774 46.8616 49.7944 52.6546C47.3115 58.4475 35.7255 74.5851 35.7255 74.5851" stroke="white" stroke-width="8.27566"/>
<path d="M55.2402 27C55.2404 39.4135 57.7226 46.8616 60.2056 52.6546C62.6885 58.4475 74.2745 74.5851 74.2745 74.5851" stroke="white" stroke-width="8.27566"/>
</svg>
