<svg width="111" height="111" viewBox="0 0 111 111" fill="none" xmlns="http://www.w3.org/2000/svg">
<rect width="111" height="110" rx="40" fill="#36B056"/>
<g clip-path="url(#clip0_242_10745)">
<rect width="47.2727" height="65" transform="translate(31 22.6318)" fill="#36B056"/>
<path d="M62.0227 22.6318L78.2727 38.8818L70.1477 40.3591L62.0227 38.8818L60.5454 30.7568L62.0227 22.6318Z" fill="#DCDCDC"/>
<path d="M62.0227 38.8818V22.6318H35.4318C32.9832 22.6318 31 24.6151 31 27.0637V83.2C31 85.6486 32.9832 87.6318 35.4318 87.6318H73.8409C76.2895 87.6318 78.2727 85.6486 78.2727 83.2V38.8818H62.0227Z" fill="white"/>
<path d="M39.8638 47.7456V69.1661H69.4092V47.7456H39.8638ZM52.7899 65.4729H43.557V60.3024H52.7899V65.4729ZM52.7899 56.6092H43.557V51.4388H52.7899V56.6092ZM65.716 65.4729H56.4831V60.3024H65.716V65.4729ZM65.716 56.6092H56.4831V51.4388H65.716V56.6092Z" fill="#36B056"/>
</g>
<defs>
<clipPath id="clip0_242_10745">
<rect width="47.2727" height="65" fill="white" transform="translate(31 22.6318)"/>
</clipPath>
</defs>
</svg>
