<svg width="22" height="17" viewBox="0 0 22 17" fill="none" xmlns="http://www.w3.org/2000/svg">
<path d="M18.5109 9.00022H21.5116C22.1667 8.99522 22.1667 8.005 21.5116 8H18.5109C17.8557 8.005 17.8557 8.99522 18.5109 9.00022Z" fill="white"/>
<path d="M18.0052 4.99924C18.1352 4.99924 18.2603 4.94923 18.3603 4.85421L19.8606 3.35388C20.0557 3.15884 20.0557 2.84377 19.8606 2.64872C19.6656 2.45368 19.3505 2.45368 19.1555 2.64872L17.6551 4.14906C17.3351 4.44412 17.5751 5.01425 18.0052 4.99924Z" fill="white"/>
<path d="M19.1544 14.3562C19.6195 14.8163 20.3247 14.1111 19.8596 13.651L18.3593 12.1507C18.1642 11.9556 17.8491 11.9556 17.6541 12.1507C17.4591 12.3457 17.4591 12.6608 17.6541 12.8558L19.1544 14.3562Z" fill="white"/>
<path d="M11.6493 15.1814C11.8243 15.3464 12.9046 16.6467 13.1196 16.7368C14.0898 17.4319 15.5451 16.6617 15.5101 15.4615V1.53839C15.5451 0.328117 14.0648 -0.442053 13.0946 0.278106C12.3194 0.953256 11.4642 2.17853 10.6291 2.77866C9.06371 4.10395 7.04826 4.85412 5.00781 4.98415V12.0157C5.74298 12.0757 6.47814 12.1757 7.18329 12.3908C8.89367 12.8809 10.454 13.8661 11.6493 15.1814Z" fill="white"/>
<path d="M0.0488864 9.95012C0.253932 11.1104 1.31917 12.0106 2.50443 12.0006H4.00476V4.99902H2.50443C1.12412 4.99902 0.00387652 6.11927 0.00387652 7.49958C0.0188798 7.84965 -0.0361324 9.64505 0.0488864 9.95012Z" fill="white"/>
<path d="M2.50413 13.0005C2.15405 13.0005 1.81898 12.9455 1.50391 12.8555V15.5011C1.55392 17.4765 4.45456 17.4815 4.50457 15.5011V13.0005C4.1745 13.0005 2.85921 13.0005 2.50413 13.0005Z" fill="white"/>
</svg>
