<svg width="509" height="206" viewBox="0 0 509 206" fill="none" xmlns="http://www.w3.org/2000/svg">
<g clip-path="url(#clip0_629_50260)">
<path d="M132.96 66.2262C132.96 102.737 103.248 132.334 66.5974 132.334C55.1057 132.334 44.2968 129.426 34.8718 124.305C14.2357 113.095 0.234375 91.29 0.234375 66.2262C0.234375 29.7164 29.946 0.118652 66.597 0.118652C103.248 0.118652 132.96 29.7164 132.96 66.2262Z" fill="#20B276"/>
<path d="M93.0844 85.0291C86.062 92.238 77.5403 95.8447 67.5203 95.8447C61.4051 95.8447 55.7234 94.8137 50.3967 91.8184L50.3328 130.205L49.8279 130.069L49.5154 129.989L49.1469 129.789L48.9729 129.476L48.8128 129.122L48.9903 128.901L31.4185 108.029L31.4236 58.6917C31.4236 48.4113 34.9342 39.6805 41.957 32.4971C48.9779 25.3133 57.4996 21.7222 67.5203 21.7222C77.5403 21.7222 86.0617 25.3261 93.0844 32.5365C100.105 39.7458 103.617 48.4953 103.617 58.7832C103.617 69.0721 100.105 77.8203 93.0844 85.0291ZM79.6805 46.2875C76.3467 42.8613 72.2932 41.1489 67.5203 41.1489C62.7464 41.1489 58.6933 42.8613 55.3601 46.2875C52.0259 49.7133 50.359 53.878 50.359 58.7843C50.359 63.6891 52.0252 67.8534 55.3601 71.2796C58.6933 74.7062 62.7464 76.4196 67.5203 76.4196C72.2932 76.4196 76.3467 74.7062 79.6805 71.2796C83.0144 67.8534 84.6813 63.6891 84.6813 58.7843C84.6813 53.878 83.0144 49.713 79.6805 46.2875Z" fill="#147F52"/>
<path d="M91.7027 83.666C84.6807 90.8759 76.1597 94.482 66.1393 94.482C60.0241 94.482 54.304 92.9842 48.9784 89.9889L48.9727 129.978C48.9727 129.978 47.6764 129.623 45.9893 129.08C45.5731 128.946 45.1531 128.803 44.7132 128.648C44.5038 128.574 44.4019 128.531 44.1864 128.468C43.6343 128.31 42.9348 128.005 42.3955 127.796C40.5841 127.093 39.116 126.423 39.0805 126.407C39.045 126.39 33.8592 123.925 33.2745 123.561C32.7508 123.236 32.2845 122.98 31.8849 122.695C31.7572 122.603 31.6608 122.539 31.5397 122.456C30.5898 121.805 30.0589 121.432 30.0589 121.432L30.043 57.33C30.043 47.0492 33.5536 38.3181 40.5763 31.1353C47.5979 23.951 56.119 20.3604 66.1397 20.3604C76.16 20.3604 84.681 23.9643 91.7034 31.1746C98.7251 38.384 102.237 47.1333 102.237 57.4208C102.236 67.709 98.7243 76.4568 91.7027 83.666ZM78.2995 44.9243C74.9649 41.4985 70.9121 39.7861 66.1386 39.7861C61.3647 39.7861 57.3115 41.4985 53.9784 44.9243C50.6442 48.3505 48.9776 52.5152 48.9776 57.4208C48.9776 62.3264 50.6442 66.4907 53.9784 69.9161C57.3115 73.3438 61.3647 75.0569 66.1386 75.0569C70.9118 75.0569 74.9649 73.3438 78.2995 69.9161C81.6326 66.4907 83.3003 62.3264 83.3003 57.4208C83.3003 52.5152 81.6326 48.3505 78.2995 44.9243Z" fill="white"/>
<path d="M149.6 110.478V25.1292C149.6 23.8671 150.08 22.7572 151.042 21.7991C152.002 20.8416 153.115 20.3623 154.382 20.3623H178.161C186.065 20.3623 192.802 23.14 198.37 28.6927C203.938 34.2455 206.722 40.9639 206.722 48.8467C206.722 56.6865 203.934 63.3935 198.359 68.9687C192.783 74.5443 186.037 77.3307 178.122 77.3307H163.821C160.673 77.3307 159.099 75.7435 159.099 72.5673V110.48C159.099 113.657 157.515 115.245 154.349 115.245C151.183 115.245 149.6 113.656 149.6 110.478ZM159.099 72.5673C159.099 69.4351 160.673 67.8692 163.823 67.8692H178.129C183.377 67.8692 187.873 66.0146 191.613 62.3043C195.354 58.5936 197.224 54.1183 197.224 48.88C197.224 43.6425 195.354 39.1572 191.613 35.4238C187.873 31.6922 183.377 29.8251 178.129 29.8251H159.099V72.5673Z" fill="#3B3938"/>
<path d="M260.764 110.476C260.764 113.655 259.17 115.245 255.982 115.245C252.794 115.245 251.222 113.658 251.266 110.481C247.029 113.658 242.269 115.245 236.985 115.245C230.434 115.245 224.822 112.929 220.15 108.295C215.476 103.662 213.14 98.0823 213.14 91.5566C213.14 85.0308 215.476 79.4414 220.15 74.7859C224.822 70.1314 230.434 67.8033 236.985 67.8033C242.269 67.8033 247.029 69.3919 251.266 72.5674C251.266 68.6347 249.867 65.2702 247.073 62.4718C244.278 59.6747 240.915 58.2762 236.985 58.2762C234.234 58.2762 231.471 59.2339 228.699 61.1474C225.925 63.0626 224.212 64.0192 223.557 64.0192C222.247 64.0192 221.1 63.5276 220.117 62.5445C219.135 61.562 218.643 60.4146 218.643 59.1037C218.643 58.0556 219.145 56.9423 220.15 55.7612C224.037 51.1302 229.649 48.8145 236.985 48.8145C243.536 48.8145 249.137 51.1344 253.789 55.7715C258.439 60.4089 260.765 65.9941 260.765 72.5262V110.476H260.764ZM251.266 91.5243C251.266 87.6008 249.864 84.2431 247.063 81.4521C244.262 78.6618 240.891 77.2658 236.952 77.2658C233.013 77.2658 229.642 78.6618 226.841 81.4521C224.04 84.2431 222.639 87.6008 222.639 91.5243C222.639 95.4488 224.04 98.8062 226.841 101.597C229.642 104.388 233.013 105.783 236.952 105.783C240.891 105.783 244.262 104.388 247.063 101.597C249.864 98.8062 251.266 95.4488 251.266 91.5243Z" fill="#3B3938"/>
<path d="M340.027 81.9972C340.027 91.1855 336.773 99.0236 330.267 105.513C323.759 112.002 315.898 115.246 306.684 115.246C297.513 115.246 289.674 112.003 283.166 105.516C276.659 99.0296 273.406 91.1937 273.406 82.0075V25.1292C273.406 21.9519 275 20.3623 278.188 20.3623C281.333 20.3623 282.904 21.953 282.904 25.1343V58.7983C289.455 52.1424 297.382 48.814 306.683 48.814C315.898 48.814 323.758 52.0587 330.266 58.5472C336.773 65.0364 340.027 72.8528 340.027 81.9972ZM330.528 81.9972C330.528 75.5062 328.191 69.931 323.519 65.2691C318.846 60.6071 313.234 58.2762 306.684 58.2762C300.176 58.2762 294.587 60.6071 289.914 65.2691C285.241 69.931 282.905 75.5062 282.905 81.9972C282.905 88.5314 285.241 94.1293 289.914 98.7916C294.587 103.453 300.176 105.783 306.684 105.783C313.234 105.783 318.846 103.453 323.519 98.7916C328.191 94.1293 330.528 88.5314 330.528 81.9972Z" fill="#3B3938"/>
<path d="M416.212 81.9972C416.212 91.1855 412.957 99.0236 406.452 105.513C399.944 112.002 392.084 115.246 382.867 115.246C373.696 115.246 365.857 112.003 359.352 105.516C352.843 99.0296 349.591 91.1937 349.591 82.0075V25.1292C349.591 21.9519 351.185 20.3623 354.373 20.3623C357.517 20.3623 359.09 21.953 359.09 25.1343V58.7983C365.64 52.1424 373.565 48.814 382.867 48.814C392.084 48.814 399.944 52.0587 406.452 58.5472C412.957 65.0364 416.212 72.8528 416.212 81.9972ZM406.715 81.9972C406.715 75.5062 404.375 69.931 399.703 65.2691C395.031 60.6071 389.421 58.2762 382.867 58.2762C376.362 58.2762 370.771 60.6071 366.098 65.2691C361.426 69.931 359.09 75.5062 359.09 81.9972C359.09 88.5314 361.426 94.1293 366.098 98.7916C370.771 103.453 376.362 105.783 382.867 105.783C389.421 105.783 395.031 103.453 399.703 98.7916C404.375 94.1293 406.715 88.5314 406.715 81.9972Z" fill="#3B3938"/>
<path d="M449.554 110.481C449.554 113.658 447.96 115.245 444.772 115.245C439.574 115.245 435.111 113.384 431.376 109.661C427.644 105.939 425.777 101.467 425.777 96.2418V25.1292C425.777 21.9519 427.371 20.3623 430.559 20.3623C433.701 20.3623 435.274 21.9519 435.274 25.1302V96.2482C435.274 98.8604 436.212 101.103 438.09 102.975C439.968 104.847 442.194 105.783 444.772 105.783C447.96 105.783 449.554 107.349 449.554 110.481Z" fill="#3B3938"/>
<path d="M506.741 119.993C506.741 126.48 504.415 132.052 499.764 136.711C495.113 141.367 489.514 143.697 482.964 143.697C478.856 143.697 474.904 142.63 471.105 140.5C467.175 138.323 464.271 135.475 462.393 131.951C461.913 130.994 461.672 130.145 461.672 129.406C461.672 128.144 462.187 127.046 463.213 126.111C464.239 125.175 465.386 124.708 466.653 124.708C467.743 124.708 469.717 126.296 472.579 129.472C475.441 132.647 478.902 134.235 482.964 134.235C486.894 134.235 490.256 132.842 493.051 130.059C495.845 127.274 497.244 123.925 497.244 120.01V110.482C493.008 113.659 488.247 115.246 482.964 115.246C476.413 115.246 470.811 112.927 466.16 108.29C461.509 103.653 459.183 98.0673 459.183 91.5345V53.5188C459.183 50.3835 460.777 48.8154 463.966 48.8154C467.111 48.8154 468.68 50.3835 468.68 53.5188V91.5416C468.68 95.4622 470.079 98.8157 472.874 101.603C475.668 104.391 479.034 105.784 482.964 105.784C486.894 105.784 490.256 104.391 493.051 101.603C495.845 98.8157 497.244 95.4618 497.244 91.5416V53.5188C497.244 50.3835 498.838 48.8154 502.026 48.8154C505.168 48.8154 506.741 50.3824 506.741 53.5167V119.993Z" fill="#3B3938"/>
</g>
<path d="M205.387 193.688C205.387 194.376 205.057 195.093 204.398 195.839C201.989 198.649 198.634 200.914 194.333 202.634C190.29 204.211 186.29 205 182.333 205C173.703 205 166.333 201.946 160.226 195.839C154.118 189.731 151.065 182.362 151.065 173.731C151.065 165.129 154.118 157.774 160.226 151.667C166.362 145.559 173.731 142.505 182.333 142.505C186.29 142.505 190.29 143.294 194.333 144.871C198.634 146.591 201.989 148.842 204.398 151.624C205.057 152.398 205.387 153.129 205.387 153.817C205.387 154.677 205.057 155.437 204.398 156.097C203.767 156.728 203.022 157.043 202.161 157.043C201.502 157.043 200.785 156.713 200.011 156.054C199.38 155.48 198.405 154.649 197.086 153.559C192.871 150.348 187.953 148.742 182.333 148.742C175.452 148.742 169.559 151.194 164.656 156.097C159.781 160.971 157.344 166.849 157.344 173.731C157.344 180.642 159.781 186.548 164.656 191.452C169.559 196.326 175.452 198.763 182.333 198.763C187.953 198.763 192.871 197.158 197.086 193.946C197.717 193.373 198.692 192.541 200.011 191.452C200.785 190.792 201.502 190.462 202.161 190.462C203.022 190.462 203.767 190.792 204.398 191.452C205.057 192.082 205.387 192.828 205.387 193.688ZM245.001 201.86C245.001 203.953 243.955 205 241.862 205C239.797 205 238.765 203.953 238.765 201.86V176.871C238.765 174.29 237.833 172.082 235.969 170.247C234.134 168.412 231.941 167.495 229.389 167.495C226.808 167.495 224.6 168.412 222.765 170.247C220.93 172.082 220.012 174.29 220.012 176.871V201.86C220.012 203.953 218.966 205 216.872 205C214.779 205 213.733 203.953 213.733 201.86V145.645C213.733 143.552 214.779 142.505 216.872 142.505C218.966 142.505 220.012 143.552 220.012 145.645V164.355C222.765 162.29 225.89 161.258 229.389 161.258C233.661 161.258 237.331 162.792 240.399 165.86C243.467 168.9 245.001 172.57 245.001 176.871V201.86ZM282.529 201.86C282.529 203.953 281.482 205 279.389 205C277.296 205 276.263 203.953 276.292 201.86C273.511 203.953 270.385 205 266.916 205C262.615 205 258.93 203.48 255.862 200.441C252.794 197.373 251.26 193.688 251.26 189.387C251.26 185.086 252.794 181.401 255.862 178.333C258.93 175.265 262.615 173.731 266.916 173.731C270.385 173.731 273.511 174.778 276.292 176.871C276.292 174.29 275.375 172.082 273.539 170.247C271.704 168.412 269.496 167.495 266.916 167.495C265.109 167.495 263.289 168.125 261.453 169.387C259.647 170.62 258.529 171.237 258.099 171.237C257.238 171.237 256.478 170.921 255.819 170.29C255.188 169.631 254.873 168.871 254.873 168.011C254.873 167.323 255.202 166.591 255.862 165.817C258.414 162.778 262.099 161.258 266.916 161.258C271.217 161.258 274.887 162.792 277.926 165.86C280.995 168.9 282.529 172.57 282.529 176.871V201.86ZM276.292 189.387C276.292 186.806 275.375 184.599 273.539 182.763C271.704 180.928 269.496 180.011 266.916 180.011C264.335 180.011 262.127 180.928 260.292 182.763C258.457 184.599 257.539 186.806 257.539 189.387C257.539 191.968 258.457 194.176 260.292 196.011C262.127 197.846 264.335 198.763 266.916 198.763C269.496 198.763 271.704 197.846 273.539 196.011C275.375 194.176 276.292 191.968 276.292 189.387ZM320.029 198.892C320.029 201.014 318.939 202.62 316.76 203.71C315.039 204.57 313.004 205 310.652 205C307.211 205 304.258 203.781 301.792 201.344C299.355 198.878 298.136 195.925 298.136 192.484V167.495H291.9C289.806 167.495 288.76 166.448 288.76 164.355C288.76 162.29 289.806 161.258 291.9 161.258H298.136V145.645C298.136 143.552 299.183 142.505 301.276 142.505C303.369 142.505 304.416 143.552 304.416 145.645V161.258H310.652C312.745 161.258 313.792 162.29 313.792 164.355C313.792 166.448 312.745 167.495 310.652 167.495H304.416V192.484C304.416 194.204 305.018 195.681 306.222 196.914C307.455 198.147 308.932 198.763 310.652 198.763C312.057 198.763 313.405 198.247 314.695 197.215C315.986 196.183 316.932 195.667 317.534 195.667C319.197 195.667 320.029 196.742 320.029 198.892ZM365.789 145.645C365.789 147.71 364.757 148.742 362.692 148.742H334.563V170.634H356.412C358.506 170.634 359.552 171.667 359.552 173.731C359.552 175.824 358.506 176.871 356.412 176.871H334.563V201.86C334.563 203.953 333.516 205 331.423 205C329.33 205 328.283 203.953 328.283 201.86V145.645C328.283 144.814 328.599 144.082 329.23 143.452C329.86 142.821 330.592 142.505 331.423 142.505H362.692C364.757 142.505 365.789 143.552 365.789 145.645ZM385.582 201.86C385.582 203.953 384.535 205 382.442 205C379.03 205 376.091 203.781 373.625 201.344C371.188 198.878 369.969 195.925 369.969 192.484V145.645C369.969 143.552 371.016 142.505 373.109 142.505C375.173 142.505 376.205 143.552 376.205 145.645V192.484C376.205 194.204 376.822 195.681 378.055 196.914C379.288 198.147 380.75 198.763 382.442 198.763C384.535 198.763 385.582 199.796 385.582 201.86ZM433.521 183.108C433.521 189.158 431.371 194.319 427.07 198.591C422.797 202.864 417.65 205 411.629 205C405.607 205 400.446 202.864 396.145 198.591C391.873 194.319 389.736 189.158 389.736 183.108C389.736 177.086 391.873 171.939 396.145 167.667C400.446 163.394 405.607 161.258 411.629 161.258C417.65 161.258 422.797 163.394 427.07 167.667C431.371 171.939 433.521 177.086 433.521 183.108ZM427.242 183.108C427.242 178.835 425.708 175.165 422.64 172.097C419.6 169.029 415.93 167.495 411.629 167.495C407.328 167.495 403.643 169.029 400.575 172.097C397.536 175.165 396.016 178.835 396.016 183.108C396.016 187.409 397.536 191.093 400.575 194.161C403.643 197.229 407.328 198.763 411.629 198.763C415.93 198.763 419.6 197.229 422.64 194.161C425.708 191.093 427.242 187.409 427.242 183.108ZM506.546 164.269C506.546 164.785 506.417 165.287 506.159 165.774L487.707 202.72C486.933 204.269 485.901 205.043 484.61 205.043C483.349 205.043 482.331 204.269 481.557 202.72L472.137 183.882L462.675 202.72C461.929 204.269 460.911 205.043 459.621 205.043C458.359 205.043 457.342 204.269 456.567 202.72L438.073 165.774C437.815 165.287 437.686 164.785 437.686 164.269C437.686 163.437 438.015 162.72 438.675 162.118C439.363 161.516 440.137 161.215 440.997 161.215C442.202 161.215 443.091 161.803 443.664 162.978L459.621 194.892L468.653 176.914L463.062 165.774C462.833 165.287 462.718 164.785 462.718 164.269C462.718 163.437 463.048 162.72 463.707 162.118C464.367 161.516 465.126 161.215 465.987 161.215C467.191 161.215 468.08 161.803 468.653 162.978L484.61 194.892L500.567 162.978C501.169 161.803 502.073 161.215 503.277 161.215C504.137 161.215 504.897 161.516 505.557 162.118C506.216 162.72 506.546 163.437 506.546 164.269Z" fill="#3B3938"/>
<defs>
<clipPath id="clip0_629_50260">
<rect width="507" height="144" fill="white"/>
</clipPath>
</defs>
</svg>
