<svg width="20" height="22" viewBox="0 0 20 22" fill="none" xmlns="http://www.w3.org/2000/svg">
<path d="M19.1094 6.875C19.393 6.875 19.625 6.64297 19.625 6.35938V4.64062C19.625 4.35703 19.393 4.125 19.1094 4.125H18.25V2.0625C18.25 0.923828 17.3262 0 16.1875 0H2.4375C1.29883 0 0.375 0.923828 0.375 2.0625V19.9375C0.375 21.0762 1.29883 22 2.4375 22H16.1875C17.3262 22 18.25 21.0762 18.25 19.9375V17.875H19.1094C19.393 17.875 19.625 17.643 19.625 17.3594V15.6406C19.625 15.357 19.393 15.125 19.1094 15.125H18.25V12.375H19.1094C19.393 12.375 19.625 12.143 19.625 11.8594V10.1406C19.625 9.85703 19.393 9.625 19.1094 9.625H18.25V6.875H19.1094ZM9.3125 5.5C10.8293 5.5 12.0625 6.7332 12.0625 8.25C12.0625 9.7668 10.8293 11 9.3125 11C7.7957 11 6.5625 9.7668 6.5625 8.25C6.5625 6.7332 7.7957 5.5 9.3125 5.5ZM14.125 15.675C14.125 16.1305 13.6953 16.5 13.1625 16.5H5.4625C4.92969 16.5 4.5 16.1305 4.5 15.675V14.85C4.5 13.4836 5.79336 12.375 7.3875 12.375H7.60234C8.13086 12.5941 8.70664 12.7188 9.3125 12.7188C9.91836 12.7188 10.4984 12.5941 11.0227 12.375H11.2375C12.8316 12.375 14.125 13.4836 14.125 14.85V15.675Z" fill="white"/>
</svg>
