<svg width="22" height="23" viewBox="0 0 22 23" fill="none" xmlns="http://www.w3.org/2000/svg">
<mask id="mask0_296_51741" style="mask-type:luminance" maskUnits="userSpaceOnUse" x="2" y="2" width="18" height="19">
<path d="M3 2.56055H19C19.2761 2.56055 19.5 2.7844 19.5 3.06055V19.0605C19.5 19.3367 19.2761 19.5605 19 19.5605H3C2.72386 19.5605 2.5 19.3367 2.5 19.0605V3.06055C2.5 2.7844 2.72386 2.56055 3 2.56055Z" fill="white" stroke="white"/>
</mask>
<g mask="url(#mask0_296_51741)">
<path d="M19 2.06055H3C2.44772 2.06055 2 2.50826 2 3.06055V19.0605C2 19.6128 2.44772 20.0605 3 20.0605H19C19.5523 20.0605 20 19.6128 20 19.0605V3.06055C20 2.50826 19.5523 2.06055 19 2.06055Z" stroke="white" stroke-width="4"/>
</g>
<path d="M16.5 13.5605V8.56055H21.5V13.5605H16.5Z" fill="white" stroke="white"/>
<path d="M0.5 13.5605V8.56055H5.5V13.5605H0.5Z" fill="white" stroke="white"/>
<path d="M11 0.560547C12.3807 0.560547 13.5 1.67983 13.5 3.06055C13.5 4.44126 12.3807 5.56055 11 5.56055C9.61929 5.56055 8.5 4.44126 8.5 3.06055C8.5 1.67983 9.61929 0.560547 11 0.560547Z" fill="white" stroke="white"/>
<path d="M11 16.5605C12.3807 16.5605 13.5 17.6798 13.5 19.0605C13.5 20.4413 12.3807 21.5605 11 21.5605C9.61929 21.5605 8.5 20.4413 8.5 19.0605C8.5 17.6798 9.61929 16.5605 11 16.5605Z" fill="white" stroke="white"/>
</svg>
