<svg width="10" height="10" viewBox="0 0 10 10" fill="none" xmlns="http://www.w3.org/2000/svg">
<path d="M4.975 8C5.15 8 5.298 7.9395 5.419 7.8185C5.54 7.6975 5.60033 7.54967 5.6 7.375C5.59967 7.20034 5.53933 7.05234 5.419 6.931C5.29867 6.80967 5.15067 6.74934 4.975 6.75C4.79933 6.75067 4.6515 6.81117 4.5315 6.9315C4.4115 7.05184 4.351 7.19967 4.35 7.375C4.349 7.55034 4.4095 7.69834 4.5315 7.819C4.6535 7.93967 4.80133 8 4.975 8ZM4.525 6.075H5.45C5.45 5.8 5.48133 5.58334 5.544 5.425C5.60667 5.26667 5.78367 5.05 6.075 4.775C6.29167 4.55834 6.4625 4.352 6.5875 4.156C6.7125 3.96 6.775 3.72467 6.775 3.45C6.775 2.98334 6.60417 2.625 6.2625 2.375C5.92083 2.125 5.51667 2 5.05 2C4.575 2 4.18967 2.125 3.894 2.375C3.59833 2.625 3.392 2.925 3.275 3.275L4.1 3.6C4.14167 3.45 4.2355 3.2875 4.3815 3.1125C4.5275 2.9375 4.75033 2.85 5.05 2.85C5.31667 2.85 5.51667 2.923 5.65 3.069C5.78333 3.215 5.85 3.37534 5.85 3.55C5.85 3.71667 5.8 3.873 5.7 4.019C5.6 4.165 5.475 4.30034 5.325 4.425C4.95833 4.75 4.73333 4.99584 4.65 5.1625C4.56667 5.32917 4.525 5.63334 4.525 6.075ZM5 10C4.30833 10 3.65833 9.86884 3.05 9.6065C2.44167 9.34417 1.9125 8.98784 1.4625 8.5375C1.0125 8.08717 0.656334 7.558 0.394001 6.95C0.131667 6.342 0.000333966 5.692 6.32911e-07 5C-0.0003327 4.308 0.131001 3.658 0.394001 3.05C0.657001 2.442 1.01317 1.91284 1.4625 1.4625C1.91183 1.01217 2.441 0.656003 3.05 0.394003C3.659 0.132003 4.309 0.000669192 5 2.52525e-06C5.691 -0.000664141 6.341 0.130669 6.95 0.394003C7.559 0.657336 8.08817 1.0135 8.5375 1.4625C8.98683 1.9115 9.34317 2.44067 9.6065 3.05C9.86983 3.65934 10.001 4.30934 10 5C9.999 5.69067 9.86767 6.34067 9.606 6.95C9.34433 7.55934 8.98817 8.0885 8.5375 8.5375C8.08683 8.9865 7.55767 9.34284 6.95 9.6065C6.34233 9.87017 5.69233 10.0013 5 10Z" fill="black"/>
</svg>
