<svg width="22" height="22" viewBox="0 0 22 22" fill="none" xmlns="http://www.w3.org/2000/svg">
<path d="M3.28906 4.3666C4.07382 4.29839 5.06635 4.29839 6.39981 4.29839H8.26225C10.8699 4.29839 12.1738 4.29839 13.1697 4.8085C14.0458 5.25721 14.7581 5.97319 15.2045 6.85383C15.712 7.85499 15.712 9.16558 15.712 11.7868V14.313C15.712 14.5748 15.712 14.7056 15.7067 14.8163C15.6253 16.5449 14.6158 18.0258 13.1667 18.7674L14.6031 19.7919C15.5407 20.4607 16.7728 19.4949 16.3448 18.4266C16.0417 17.6698 16.5998 16.8467 17.416 16.8467H18.0464C20.2287 16.8467 21.9977 15.0801 21.9977 12.9008V8.47727C21.9977 5.54771 21.9977 4.08294 21.4267 2.964C20.9246 1.97975 20.1233 1.17954 19.1377 0.678038C18.0172 0.10791 16.5504 0.10791 13.6167 0.10791H11.5215C8.5879 0.10791 7.12109 0.10791 6.0006 0.678038C5.01499 1.17954 4.21366 1.97975 3.71147 2.964C3.505 3.36867 3.3732 3.81856 3.28906 4.3666Z" fill="white"/>
<path fill-rule="evenodd" clip-rule="evenodd" d="M14.2226 7.601C14.6667 8.48438 14.6667 9.64078 14.6667 11.9536V14.1826C14.6667 14.4135 14.6667 14.5291 14.6621 14.6266C14.5627 16.7538 12.8838 18.4557 10.7852 18.5564C10.689 18.561 10.5619 18.561 10.3077 18.561L10.2425 18.5611C9.41117 18.5664 8.60138 18.8295 7.92183 19.3148L7.87862 19.3461L5.75136 20.8863C5.02211 21.4143 4.06383 20.6517 4.39666 19.8084C4.63242 19.2109 4.19834 18.561 3.56352 18.561H3.0732C1.37592 18.561 0 17.1663 0 15.4459V11.9536C0 9.64078 0 8.48438 0.444048 7.601C0.834642 6.82396 1.4579 6.19222 2.22448 5.79629C3.09598 5.34619 4.23682 5.34619 6.51852 5.34619H8.14815C10.4298 5.34619 11.5707 5.34619 12.4422 5.79629C13.2088 6.19222 13.832 6.82396 14.2226 7.601ZM4.19048 13.7271C4.76906 13.7271 5.2381 13.2581 5.2381 12.6795C5.2381 12.1009 4.76906 11.6319 4.19048 11.6319C3.6119 11.6319 3.14286 12.1009 3.14286 12.6795C3.14286 13.2581 3.6119 13.7271 4.19048 13.7271ZM8.38095 12.6795C8.38095 13.2581 7.91191 13.7271 7.33333 13.7271C6.75475 13.7271 6.28571 13.2581 6.28571 12.6795C6.28571 12.1009 6.75475 11.6319 7.33333 11.6319C7.91191 11.6319 8.38095 12.1009 8.38095 12.6795ZM10.4762 13.7271C11.0548 13.7271 11.5238 13.2581 11.5238 12.6795C11.5238 12.1009 11.0548 11.6319 10.4762 11.6319C9.8976 11.6319 9.42857 12.1009 9.42857 12.6795C9.42857 13.2581 9.8976 13.7271 10.4762 13.7271Z" fill="white"/>
</svg>
