<svg width="1428" height="498" viewBox="0 0 1428 498" fill="none" xmlns="http://www.w3.org/2000/svg">
<g clip-path="url(#clip0_17_213)">
<path d="M374.284 186.747C374.284 289.689 290.597 373.135 187.368 373.135C155.001 373.135 124.556 364.935 98.0108 350.498C39.8876 318.891 0.452026 257.413 0.452026 186.747C0.452026 83.8099 84.137 0.360657 187.366 0.360657C290.597 0.360657 374.284 83.8099 374.284 186.747Z" fill="#20B276"/>
<path d="M261.97 239.761C242.191 260.086 218.188 270.255 189.967 270.255C172.743 270.255 156.739 267.348 141.737 258.903L141.557 367.132L140.135 366.749L139.255 366.524L138.216 365.96L137.727 365.077L137.276 364.079L137.776 363.454L88.2834 304.608L88.2979 165.504C88.2979 136.52 98.1857 111.903 117.966 91.65C137.741 71.3957 161.743 61.2707 189.967 61.2707C218.188 61.2707 242.19 71.4317 261.97 91.761C281.745 112.087 291.636 136.756 291.636 165.762C291.636 194.772 281.745 219.436 261.97 239.761ZM224.217 130.531C214.827 120.871 203.41 116.043 189.967 116.043C176.521 116.043 165.104 120.871 155.717 130.531C146.326 140.19 141.63 151.932 141.63 165.765C141.63 179.594 146.324 191.336 155.717 200.995C165.104 210.656 176.521 215.487 189.967 215.487C203.41 215.487 214.827 210.656 224.217 200.995C233.607 191.336 238.302 179.594 238.302 165.765C238.302 151.932 233.607 140.189 224.217 130.531Z" fill="#147F52"/>
<path d="M258.079 235.919C238.301 256.246 214.301 266.413 186.078 266.413C168.853 266.413 152.743 262.191 137.743 253.745L137.727 366.494C137.727 366.494 134.076 365.491 129.324 363.961C128.152 363.583 126.969 363.179 125.73 362.742C125.14 362.533 124.853 362.411 124.246 362.236C122.691 361.79 120.721 360.928 119.202 360.339C114.099 358.358 109.965 356.469 109.865 356.423C109.765 356.376 95.1589 349.427 93.5119 348.402C92.0368 347.482 90.7235 346.762 89.5981 345.957C89.2383 345.7 88.9667 345.517 88.6258 345.284C85.9501 343.45 84.4548 342.397 84.4548 342.397L84.41 161.665C84.41 132.679 94.2978 108.062 114.078 87.8106C133.855 67.5549 157.855 57.4313 186.079 57.4313C214.302 57.4313 238.302 67.5923 258.08 87.9216C277.857 108.248 287.75 132.917 287.75 161.921C287.747 190.928 277.856 215.592 258.079 235.919ZM220.328 126.689C210.936 117.029 199.521 112.201 186.076 112.201C172.63 112.201 161.214 117.029 151.826 126.689C142.435 136.348 137.741 148.09 137.741 161.921C137.741 175.752 142.435 187.493 151.826 197.152C161.214 206.816 172.63 211.645 186.076 211.645C199.519 211.645 210.936 206.816 220.328 197.152C229.716 187.493 234.413 175.752 234.413 161.921C234.413 148.09 229.716 136.348 220.328 126.689Z" fill="white"/>
<path d="M421.151 311.513V70.877C421.151 67.3186 422.503 64.1895 425.211 61.4882C427.915 58.7884 431.05 57.437 434.62 57.437H501.595C523.857 57.437 542.832 65.2685 558.515 80.9243C574.198 96.58 582.04 115.522 582.04 137.747C582.04 159.851 574.186 178.761 558.483 194.481C542.778 210.2 523.779 218.056 501.486 218.056H461.206C452.338 218.056 447.905 213.581 447.905 204.626V311.521C447.905 320.477 443.445 324.952 434.528 324.952C425.608 324.953 421.151 320.474 421.151 311.513ZM447.905 204.627C447.905 195.796 452.338 191.38 461.212 191.38H501.504C516.287 191.38 528.95 186.151 539.484 175.69C550.019 165.228 555.288 152.61 555.288 137.841C555.288 123.074 550.019 110.428 539.484 99.9022C528.949 89.381 516.287 84.1168 501.504 84.1168H447.905V204.627Z" fill="#3B3938"/>
<path d="M734.251 311.508C734.251 320.471 729.761 324.953 720.784 324.953C711.803 324.953 707.375 320.479 707.499 311.522C695.567 320.479 682.158 324.953 667.276 324.953C648.826 324.953 633.019 318.423 619.859 305.359C606.696 292.296 600.116 276.564 600.116 258.165C600.116 239.767 606.696 224.007 619.859 210.881C633.019 197.758 648.826 191.194 667.276 191.194C682.158 191.194 695.567 195.673 707.499 204.626C707.499 193.538 703.561 184.052 695.691 176.163C687.818 168.276 678.347 164.333 667.278 164.333C659.528 164.333 651.747 167.033 643.938 172.428C636.125 177.828 631.299 180.525 629.455 180.525C625.765 180.525 622.536 179.139 619.768 176.367C616.999 173.597 615.615 170.362 615.615 166.666C615.615 163.711 617.028 160.572 619.86 157.242C630.807 144.185 646.614 137.656 667.278 137.656C685.728 137.656 701.504 144.197 714.604 157.271C727.704 170.347 734.254 186.093 734.254 204.511V311.508H734.251ZM707.499 258.075C707.499 247.012 703.552 237.545 695.662 229.676C687.773 221.809 678.278 217.873 667.185 217.873C656.088 217.873 646.595 221.809 638.705 229.676C630.815 237.545 626.871 247.012 626.871 258.075C626.871 269.139 630.815 278.606 638.705 286.474C646.595 294.342 656.09 298.275 667.185 298.275C678.278 298.275 687.773 294.342 695.662 286.474C703.552 278.606 707.499 269.139 707.499 258.075Z" fill="#3B3938"/>
<path d="M957.501 231.213C957.501 257.119 948.337 279.218 930.01 297.514C911.68 315.809 889.54 324.955 863.587 324.955C837.757 324.955 815.677 315.812 797.349 297.523C779.019 279.235 769.858 257.142 769.858 231.242V70.877C769.858 61.919 774.347 57.437 783.328 57.437C792.184 57.437 796.611 61.9218 796.611 70.8914V165.806C815.061 147.039 837.387 137.655 863.586 137.655C889.539 137.655 911.678 146.803 930.009 165.097C948.337 183.393 957.501 205.431 957.501 231.213ZM930.747 231.213C930.747 212.913 924.165 197.193 911.005 184.049C897.842 170.906 882.038 164.333 863.587 164.333C845.258 164.333 829.515 170.906 816.354 184.049C803.191 197.193 796.612 212.913 796.612 231.213C796.612 249.637 803.191 265.419 816.354 278.564C829.515 291.707 845.259 298.276 863.587 298.276C882.038 298.276 897.842 291.707 911.005 278.564C924.165 265.419 930.747 249.637 930.747 231.213Z" fill="#3B3938"/>
<path d="M1172.08 231.213C1172.08 257.119 1162.92 279.218 1144.59 297.514C1126.26 315.809 1104.12 324.955 1078.17 324.955C1052.34 324.955 1030.26 315.812 1011.93 297.523C993.599 279.235 984.438 257.142 984.438 231.242V70.877C984.438 61.919 988.927 57.437 997.907 57.437C1006.76 57.437 1011.19 61.9218 1011.19 70.8914V165.806C1029.64 147.039 1051.97 137.655 1078.17 137.655C1104.12 137.655 1126.26 146.803 1144.59 165.097C1162.92 183.393 1172.08 205.431 1172.08 231.213ZM1145.33 231.213C1145.33 212.913 1138.74 197.193 1125.58 184.049C1112.42 170.906 1096.62 164.333 1078.17 164.333C1059.84 164.333 1044.09 170.906 1030.93 184.049C1017.77 197.193 1011.19 212.913 1011.19 231.213C1011.19 249.637 1017.77 265.419 1030.93 278.564C1044.09 291.707 1059.84 298.276 1078.17 298.276C1096.62 298.276 1112.42 291.707 1125.58 278.564C1138.75 265.419 1145.33 249.637 1145.33 231.213Z" fill="#3B3938"/>
<path d="M1265.99 311.522C1265.99 320.479 1261.5 324.953 1252.53 324.953C1237.89 324.953 1225.31 319.706 1214.79 309.211C1204.28 298.717 1199.02 286.106 1199.02 271.375V70.877C1199.02 61.919 1203.51 57.437 1212.49 57.437C1221.34 57.437 1225.77 61.919 1225.77 70.8799V271.394C1225.77 278.758 1228.42 285.081 1233.71 290.359C1238.99 295.637 1245.27 298.276 1252.52 298.276C1261.5 298.276 1265.99 302.691 1265.99 311.522Z" fill="#3B3938"/>
<path d="M1427.07 338.339C1427.07 356.628 1420.51 372.338 1407.41 385.474C1394.31 398.602 1378.54 405.173 1360.09 405.173C1348.52 405.173 1337.39 402.164 1326.69 396.157C1315.62 390.021 1307.44 381.989 1302.15 372.055C1300.8 369.355 1300.12 366.963 1300.12 364.88C1300.12 361.32 1301.57 358.226 1304.46 355.589C1307.35 352.95 1310.58 351.633 1314.15 351.633C1317.22 351.633 1322.79 356.109 1330.85 365.064C1338.9 374.017 1348.65 378.494 1360.09 378.494C1371.16 378.494 1380.63 374.567 1388.5 366.72C1396.37 358.868 1400.31 349.424 1400.31 338.386V311.523C1388.38 320.48 1374.97 324.955 1360.09 324.955C1341.64 324.955 1325.86 318.417 1312.76 305.343C1299.66 292.269 1293.11 276.521 1293.11 258.102V150.919C1293.11 142.079 1297.6 137.658 1306.58 137.658C1315.44 137.658 1319.87 142.079 1319.87 150.919V258.122C1319.87 269.176 1323.8 278.631 1331.67 286.49C1339.54 294.351 1349.02 298.278 1360.09 298.278C1371.16 298.278 1380.63 294.351 1388.5 286.49C1396.37 278.631 1400.31 269.175 1400.31 258.122V150.919C1400.31 142.079 1404.8 137.658 1413.78 137.658C1422.64 137.658 1427.06 142.076 1427.06 150.913V338.339H1427.07Z" fill="#3B3938"/>
</g>
<path d="M499.865 477.773C499.865 478.791 499.377 479.852 498.401 480.955C494.837 485.113 489.873 488.465 483.509 491.01C477.527 493.344 471.608 494.51 465.753 494.51C452.982 494.51 442.079 489.992 433.042 480.955C424.004 471.918 419.486 461.014 419.486 448.243C419.486 435.515 424.004 424.632 433.042 415.595C442.121 406.558 453.025 402.04 465.753 402.04C471.608 402.04 477.527 403.207 483.509 405.54C489.873 408.086 494.837 411.416 498.401 415.532C499.377 416.677 499.865 417.759 499.865 418.777C499.865 420.05 499.377 421.175 498.401 422.15C497.468 423.084 496.365 423.551 495.092 423.551C494.116 423.551 493.055 423.063 491.91 422.087C490.976 421.238 489.534 420.008 487.582 418.396C481.345 413.644 474.069 411.268 465.753 411.268C455.571 411.268 446.852 414.895 439.597 422.15C432.384 429.363 428.778 438.061 428.778 448.243C428.778 458.468 432.384 467.208 439.597 474.463C446.852 481.676 455.571 485.282 465.753 485.282C474.069 485.282 481.345 482.907 487.582 478.155C488.515 477.306 489.958 476.076 491.91 474.463C493.055 473.488 494.116 473 495.092 473C496.365 473 497.468 473.488 498.401 474.463C499.377 475.397 499.865 476.5 499.865 477.773Z" fill="#3B3938"/>
<path d="M572.307 462.117C572.307 471.069 569.124 478.706 562.76 485.028C556.439 491.35 548.823 494.51 539.913 494.51C531.003 494.51 523.366 491.35 517.002 485.028C510.681 478.706 507.52 471.069 507.52 462.117C507.52 453.207 510.681 445.592 517.002 439.27C523.366 432.948 531.003 429.787 539.913 429.787C548.823 429.787 556.439 432.948 562.76 439.27C569.124 445.592 572.307 453.207 572.307 462.117ZM563.015 462.117C563.015 455.795 560.745 450.365 556.205 445.825C551.708 441.285 546.277 439.015 539.913 439.015C533.549 439.015 528.097 441.285 523.557 445.825C519.06 450.365 516.811 455.795 516.811 462.117C516.811 468.481 519.06 473.933 523.557 478.473C528.097 483.013 533.549 485.282 539.913 485.282C546.277 485.282 551.708 483.013 556.205 478.473C560.745 473.933 563.015 468.481 563.015 462.117Z" fill="#3B3938"/>
<path d="M632.388 489.865C632.388 492.962 630.84 494.51 627.742 494.51C624.688 494.51 623.16 492.962 623.16 489.865V452.889C623.16 449.071 621.781 445.804 619.024 443.088C616.308 440.373 613.063 439.015 609.286 439.015C605.468 439.015 602.201 440.373 599.486 443.088C596.77 445.804 595.413 449.071 595.413 452.889V489.865C595.413 492.962 593.864 494.51 590.767 494.51C587.67 494.51 586.121 492.962 586.121 489.865V434.37C586.121 431.315 587.67 429.787 590.767 429.787C593.864 429.787 595.413 431.315 595.413 434.37C599.486 431.315 604.11 429.787 609.286 429.787C615.608 429.787 621.039 432.057 625.579 436.597C630.118 441.094 632.388 446.525 632.388 452.889V489.865Z" fill="#3B3938"/>
<path d="M695.568 489.865C695.568 492.962 694.02 494.51 690.923 494.51C687.868 494.51 686.34 492.962 686.34 489.865V452.889C686.34 449.071 684.962 445.804 682.204 443.088C679.488 440.373 676.243 439.015 672.467 439.015C668.648 439.015 665.381 440.373 662.666 443.088C659.951 445.804 658.593 449.071 658.593 452.889V489.865C658.593 492.962 657.044 494.51 653.947 494.51C650.85 494.51 649.301 492.962 649.301 489.865V434.37C649.301 431.315 650.85 429.787 653.947 429.787C657.044 429.787 658.593 431.315 658.593 434.37C662.666 431.315 667.291 429.787 672.467 429.787C678.788 429.787 684.219 432.057 688.759 436.597C693.299 441.094 695.568 446.525 695.568 452.889V489.865Z" fill="#3B3938"/>
<path d="M767.404 475.927C767.404 476.648 767.192 477.455 766.767 478.346C764.179 483.225 760.255 487.149 754.994 490.119C749.775 493.047 744.345 494.51 738.702 494.51C729.792 494.51 722.155 491.35 715.791 485.028C709.469 478.706 706.308 471.069 706.308 462.117C706.308 453.207 709.469 445.592 715.791 439.27C722.155 432.948 729.792 429.787 738.702 429.787C741.884 429.787 745.214 430.381 748.693 431.569C752.639 432.927 756.5 435.091 760.276 438.061C764.986 441.752 767.34 445.231 767.34 448.498C767.34 450.153 766.577 451.404 765.049 452.253L721.391 477.455C725.973 482.673 731.744 485.282 738.702 485.282C745.999 485.282 751.812 482.631 756.139 477.327C756.691 476.521 757.561 475.333 758.749 473.763C759.979 472.151 761.252 471.345 762.567 471.345C763.84 471.345 764.964 471.791 765.94 472.682C766.916 473.572 767.404 474.654 767.404 475.927ZM756.012 446.843C751.388 441.625 745.617 439.015 738.702 439.015C732.338 439.015 726.886 441.285 722.346 445.825C717.849 450.365 715.6 455.795 715.6 462.117C715.6 464.663 715.982 467.124 716.745 469.499L756.012 446.843Z" fill="#3B3938"/>
<path d="M831.828 442.452C831.828 443.725 831.34 444.849 830.365 445.825C829.431 446.758 828.328 447.225 827.055 447.225C826.673 447.225 824.382 445.867 820.182 443.152C816.024 440.394 811.802 439.015 807.517 439.015C801.153 439.015 795.701 441.285 791.162 445.825C786.664 450.365 784.416 455.795 784.416 462.117C784.416 468.481 786.664 473.933 791.162 478.473C795.701 483.013 801.153 485.282 807.517 485.282C811.76 485.282 815.96 483.925 820.118 481.209C824.319 478.452 826.631 477.073 827.055 477.073C828.286 477.073 829.367 477.561 830.301 478.536C831.277 479.512 831.765 480.615 831.765 481.846C831.765 482.864 831.298 483.946 830.365 485.092C827.904 487.977 824.425 490.289 819.927 492.028C815.727 493.683 811.59 494.51 807.517 494.51C798.608 494.51 790.971 491.35 784.606 485.028C778.285 478.706 775.124 471.069 775.124 462.117C775.124 453.207 778.285 445.592 784.606 439.27C790.971 432.948 798.608 429.787 807.517 429.787C811.59 429.787 815.727 430.615 819.927 432.269C824.425 434.051 827.904 436.385 830.365 439.27C831.34 440.373 831.828 441.434 831.828 442.452Z" fill="#3B3938"/>
<path d="M885.727 485.473C885.727 488.613 884.115 490.989 880.891 492.601C878.345 493.874 875.333 494.51 871.854 494.51C866.762 494.51 862.392 492.707 858.743 489.101C855.137 485.452 853.334 481.082 853.334 475.991V439.015H844.106C841.009 439.015 839.46 437.467 839.46 434.37C839.46 431.315 841.009 429.787 844.106 429.787H853.334V406.686C853.334 403.588 854.883 402.04 857.98 402.04C861.077 402.04 862.626 403.588 862.626 406.686V429.787H871.854C874.951 429.787 876.499 431.315 876.499 434.37C876.499 437.467 874.951 439.015 871.854 439.015H862.626V475.991C862.626 478.536 863.517 480.722 865.298 482.546C867.123 484.37 869.308 485.282 871.854 485.282C873.932 485.282 875.927 484.519 877.836 482.991C879.745 481.464 881.145 480.7 882.036 480.7C884.497 480.7 885.727 482.291 885.727 485.473Z" fill="#3B3938"/>
<path d="M499.865 477.773C499.865 478.791 499.377 479.852 498.401 480.955C494.837 485.113 489.873 488.465 483.509 491.01C477.527 493.344 471.608 494.51 465.753 494.51C452.982 494.51 442.079 489.992 433.042 480.955C424.004 471.918 419.486 461.014 419.486 448.243C419.486 435.515 424.004 424.632 433.042 415.595C442.121 406.558 453.025 402.04 465.753 402.04C471.608 402.04 477.527 403.207 483.509 405.54C489.873 408.086 494.837 411.416 498.401 415.532C499.377 416.677 499.865 417.759 499.865 418.777C499.865 420.05 499.377 421.175 498.401 422.15C497.468 423.084 496.365 423.551 495.092 423.551C494.116 423.551 493.055 423.063 491.91 422.087C490.976 421.238 489.534 420.008 487.582 418.396C481.345 413.644 474.069 411.268 465.753 411.268C455.571 411.268 446.852 414.895 439.597 422.15C432.384 429.363 428.778 438.061 428.778 448.243C428.778 458.468 432.384 467.208 439.597 474.463C446.852 481.676 455.571 485.282 465.753 485.282C474.069 485.282 481.345 482.907 487.582 478.155C488.515 477.306 489.958 476.076 491.91 474.463C493.055 473.488 494.116 473 495.092 473C496.365 473 497.468 473.488 498.401 474.463C499.377 475.397 499.865 476.5 499.865 477.773Z" stroke="#3B3938" stroke-width="5"/>
<path d="M572.307 462.117C572.307 471.069 569.124 478.706 562.76 485.028C556.439 491.35 548.823 494.51 539.913 494.51C531.003 494.51 523.366 491.35 517.002 485.028C510.681 478.706 507.52 471.069 507.52 462.117C507.52 453.207 510.681 445.592 517.002 439.27C523.366 432.948 531.003 429.787 539.913 429.787C548.823 429.787 556.439 432.948 562.76 439.27C569.124 445.592 572.307 453.207 572.307 462.117ZM563.015 462.117C563.015 455.795 560.745 450.365 556.205 445.825C551.708 441.285 546.277 439.015 539.913 439.015C533.549 439.015 528.097 441.285 523.557 445.825C519.06 450.365 516.811 455.795 516.811 462.117C516.811 468.481 519.06 473.933 523.557 478.473C528.097 483.013 533.549 485.282 539.913 485.282C546.277 485.282 551.708 483.013 556.205 478.473C560.745 473.933 563.015 468.481 563.015 462.117Z" stroke="#3B3938" stroke-width="5"/>
<path d="M632.388 489.865C632.388 492.962 630.84 494.51 627.742 494.51C624.688 494.51 623.16 492.962 623.16 489.865V452.889C623.16 449.071 621.781 445.804 619.024 443.088C616.308 440.373 613.063 439.015 609.286 439.015C605.468 439.015 602.201 440.373 599.486 443.088C596.77 445.804 595.413 449.071 595.413 452.889V489.865C595.413 492.962 593.864 494.51 590.767 494.51C587.67 494.51 586.121 492.962 586.121 489.865V434.37C586.121 431.315 587.67 429.787 590.767 429.787C593.864 429.787 595.413 431.315 595.413 434.37C599.486 431.315 604.11 429.787 609.286 429.787C615.608 429.787 621.039 432.057 625.579 436.597C630.118 441.094 632.388 446.525 632.388 452.889V489.865Z" stroke="#3B3938" stroke-width="5"/>
<path d="M695.568 489.865C695.568 492.962 694.02 494.51 690.923 494.51C687.868 494.51 686.34 492.962 686.34 489.865V452.889C686.34 449.071 684.962 445.804 682.204 443.088C679.488 440.373 676.243 439.015 672.467 439.015C668.648 439.015 665.381 440.373 662.666 443.088C659.951 445.804 658.593 449.071 658.593 452.889V489.865C658.593 492.962 657.044 494.51 653.947 494.51C650.85 494.51 649.301 492.962 649.301 489.865V434.37C649.301 431.315 650.85 429.787 653.947 429.787C657.044 429.787 658.593 431.315 658.593 434.37C662.666 431.315 667.291 429.787 672.467 429.787C678.788 429.787 684.219 432.057 688.759 436.597C693.299 441.094 695.568 446.525 695.568 452.889V489.865Z" stroke="#3B3938" stroke-width="5"/>
<path d="M767.404 475.927C767.404 476.648 767.192 477.455 766.767 478.346C764.179 483.225 760.255 487.149 754.994 490.119C749.775 493.047 744.345 494.51 738.702 494.51C729.792 494.51 722.155 491.35 715.791 485.028C709.469 478.706 706.308 471.069 706.308 462.117C706.308 453.207 709.469 445.592 715.791 439.27C722.155 432.948 729.792 429.787 738.702 429.787C741.884 429.787 745.214 430.381 748.693 431.569C752.639 432.927 756.5 435.091 760.276 438.061C764.986 441.752 767.34 445.231 767.34 448.498C767.34 450.153 766.577 451.404 765.049 452.253L721.391 477.455C725.973 482.673 731.744 485.282 738.702 485.282C745.999 485.282 751.812 482.631 756.139 477.327C756.691 476.521 757.561 475.333 758.749 473.763C759.979 472.151 761.252 471.345 762.567 471.345C763.84 471.345 764.964 471.791 765.94 472.682C766.916 473.572 767.404 474.654 767.404 475.927ZM756.012 446.843C751.388 441.625 745.617 439.015 738.702 439.015C732.338 439.015 726.886 441.285 722.346 445.825C717.849 450.365 715.6 455.795 715.6 462.117C715.6 464.663 715.982 467.124 716.745 469.499L756.012 446.843Z" stroke="#3B3938" stroke-width="5"/>
<path d="M831.828 442.452C831.828 443.725 831.34 444.849 830.365 445.825C829.431 446.758 828.328 447.225 827.055 447.225C826.673 447.225 824.382 445.867 820.182 443.152C816.024 440.394 811.802 439.015 807.517 439.015C801.153 439.015 795.701 441.285 791.162 445.825C786.664 450.365 784.416 455.795 784.416 462.117C784.416 468.481 786.664 473.933 791.162 478.473C795.701 483.013 801.153 485.282 807.517 485.282C811.76 485.282 815.96 483.925 820.118 481.209C824.319 478.452 826.631 477.073 827.055 477.073C828.286 477.073 829.367 477.561 830.301 478.536C831.277 479.512 831.765 480.615 831.765 481.846C831.765 482.864 831.298 483.946 830.365 485.092C827.904 487.977 824.425 490.289 819.927 492.028C815.727 493.683 811.59 494.51 807.517 494.51C798.608 494.51 790.971 491.35 784.606 485.028C778.285 478.706 775.124 471.069 775.124 462.117C775.124 453.207 778.285 445.592 784.606 439.27C790.971 432.948 798.608 429.787 807.517 429.787C811.59 429.787 815.727 430.615 819.927 432.269C824.425 434.051 827.904 436.385 830.365 439.27C831.34 440.373 831.828 441.434 831.828 442.452Z" stroke="#3B3938" stroke-width="5"/>
<path d="M885.727 485.473C885.727 488.613 884.115 490.989 880.891 492.601C878.345 493.874 875.333 494.51 871.854 494.51C866.762 494.51 862.392 492.707 858.743 489.101C855.137 485.452 853.334 481.082 853.334 475.991V439.015H844.106C841.009 439.015 839.46 437.467 839.46 434.37C839.46 431.315 841.009 429.787 844.106 429.787H853.334V406.686C853.334 403.588 854.883 402.04 857.98 402.04C861.077 402.04 862.626 403.588 862.626 406.686V429.787H871.854C874.951 429.787 876.499 431.315 876.499 434.37C876.499 437.467 874.951 439.015 871.854 439.015H862.626V475.991C862.626 478.536 863.517 480.722 865.298 482.546C867.123 484.37 869.308 485.282 871.854 485.282C873.932 485.282 875.927 484.519 877.836 482.991C879.745 481.464 881.145 480.7 882.036 480.7C884.497 480.7 885.727 482.291 885.727 485.473Z" stroke="#3B3938" stroke-width="5"/>
<defs>
<clipPath id="clip0_17_213">
<rect width="1426.61" height="404.812" fill="white" transform="translate(0.452026 0.360657)"/>
</clipPath>
</defs>
</svg>
