<svg width="22" height="23" viewBox="0 0 22 23" fill="none" xmlns="http://www.w3.org/2000/svg">
<path d="M20.0528 0.0605469H1.94998C1.11682 0.0605469 0.441406 0.764099 0.441406 1.63198V7.13197C0.441406 7.99985 1.11682 8.7034 1.94998 8.7034H20.0528C20.886 8.7034 21.5614 7.99985 21.5614 7.13197V1.63198C21.5614 0.764099 20.886 0.0605469 20.0528 0.0605469Z" fill="white"/>
<path d="M9.49284 11.0605H1.94998C1.11682 11.0605 0.441406 11.7641 0.441406 12.632V20.4891C0.441406 21.357 1.11682 22.0605 1.94998 22.0605H9.49284C10.326 22.0605 11.0014 21.357 11.0014 20.4891V12.632C11.0014 11.7641 10.326 11.0605 9.49284 11.0605Z" fill="white"/>
<path d="M20.8085 11.8462H14.0199C13.8199 11.8462 13.628 11.929 13.4865 12.0763C13.3451 12.2237 13.2656 12.4235 13.2656 12.6319C13.2656 12.8403 13.3451 13.0401 13.4865 13.1875C13.628 13.3348 13.8199 13.4176 14.0199 13.4176H20.8085C21.0085 13.4176 21.2004 13.3348 21.3418 13.1875C21.4833 13.0401 21.5628 12.8403 21.5628 12.6319C21.5628 12.4235 21.4833 12.2237 21.3418 12.0763C21.2004 11.929 21.0085 11.8462 20.8085 11.8462Z" fill="white"/>
<path d="M20.8085 15.7744H14.0199C13.8199 15.7744 13.628 15.8572 13.4865 16.0045C13.3451 16.1519 13.2656 16.3517 13.2656 16.5601C13.2656 16.7685 13.3451 16.9684 13.4865 17.1157C13.628 17.2631 13.8199 17.3458 14.0199 17.3458H20.8085C21.0085 17.3458 21.2004 17.2631 21.3418 17.1157C21.4833 16.9684 21.5628 16.7685 21.5628 16.5601C21.5628 16.3517 21.4833 16.1519 21.3418 16.0045C21.2004 15.8572 21.0085 15.7744 20.8085 15.7744Z" fill="white"/>
<path d="M20.8085 19.7031H14.0199C13.8199 19.7031 13.628 19.7859 13.4865 19.9333C13.3451 20.0806 13.2656 20.2805 13.2656 20.4888C13.2656 20.6972 13.3451 20.8971 13.4865 21.0444C13.628 21.1918 13.8199 21.2746 14.0199 21.2746H20.8085C21.0085 21.2746 21.2004 21.1918 21.3418 21.0444C21.4833 20.8971 21.5628 20.6972 21.5628 20.4888C21.5628 20.2805 21.4833 20.0806 21.3418 19.9333C21.2004 19.7859 21.0085 19.7031 20.8085 19.7031Z" fill="white"/>
</svg>
